<svg width="68" height="64" viewBox="0 0 68 64" fill="none" xmlns="http://www.w3.org/2000/svg">
<g filter="url(#filter0_d_72_61)">
<path d="M46.9 44.1998C46.8318 44.4322 46.7175 44.6485 46.5638 44.8357C46.41 45.0229 46.2201 45.1772 46.0053 45.2892C45.7906 45.4012 45.5554 45.4688 45.3139 45.4878C45.0725 45.5068 44.8296 45.4769 44.6 45.3998H44.5C44.0504 45.2076 43.6922 44.8494 43.5 44.3998H43.4L39.6 38.1998C39.4349 37.9413 39.1772 37.7558 38.8796 37.6814C38.582 37.607 38.2673 37.6494 38 37.7998C37.7505 37.9959 37.5751 38.2709 37.5024 38.5798C37.4298 38.8887 37.4642 39.2131 37.6 39.4998L41.4 45.5998L42 46.4998L41.8 46.8998C41.6099 47.2084 41.3311 47.4523 41 47.5998C40.7961 47.7382 40.5593 47.8204 40.3134 47.8379C40.0676 47.8555 39.8215 47.8078 39.6 47.6998C39.1629 47.5403 38.8045 47.2178 38.6 46.7998H38.5L34.7 40.4998C34.6459 40.3264 34.5531 40.1675 34.4287 40.0352C34.3042 39.9029 34.1514 39.8005 33.9816 39.7359C33.8119 39.6712 33.6297 39.6459 33.4487 39.6619C33.2678 39.6779 33.0928 39.7348 32.9371 39.8283C32.7813 39.9217 32.6488 40.0493 32.5495 40.2015C32.4503 40.3536 32.3868 40.5263 32.364 40.7065C32.3412 40.8867 32.3595 41.0697 32.4177 41.2418C32.476 41.4139 32.5725 41.5705 32.7 41.6998L36.4 47.9998L36.7 48.4998V48.8998C36.4824 49.1838 36.2104 49.4218 35.9 49.5998C35.4483 49.8063 34.9338 49.8277 34.4665 49.6595C33.9993 49.4913 33.6164 49.1468 33.4 48.6998L29.8 42.6998C29.6295 42.4704 29.3827 42.3093 29.1041 42.2457C28.8254 42.182 28.5332 42.2199 28.28 42.3525C28.0268 42.4852 27.8293 42.7038 27.7229 42.9691C27.6166 43.2345 27.6085 43.529 27.7 43.7998L31.2 49.5998L31 49.9998C30.8775 50.2193 30.7103 50.4107 30.5093 50.5617C30.3084 50.7126 30.078 50.8198 29.833 50.8763C29.5881 50.9329 29.3341 50.9375 29.0872 50.8898C28.8404 50.8422 28.6063 50.7434 28.4 50.5998C28.0914 50.4097 27.8475 50.1309 27.7 49.7998H27.6L21.4 39.2998C21.282 39.1152 21.1194 38.9634 20.9271 38.8585C20.7347 38.7536 20.5191 38.699 20.3 38.6998H15.5V22.7998H27.6L22.8 27.4998C22.5938 27.6886 22.4273 27.9167 22.3104 28.1706C22.1935 28.4246 22.1285 28.6994 22.1192 28.9788C22.1099 29.2582 22.1565 29.5367 22.2562 29.7979C22.3559 30.0591 22.5068 30.2977 22.7 30.4998L23.1 30.7998L23.8 31.1998C24.8004 31.8878 25.9859 32.2561 27.2 32.2561C28.4141 32.2561 29.5996 31.8878 30.6 31.1998L37.3 26.8998L46.8 42.7998C46.9154 43.0126 46.984 43.2476 47.0012 43.489C47.0185 43.7304 46.984 43.9728 46.9 44.1998Z" fill="white"/>
<path d="M47.0998 38.9999L38.5998 24.8999C38.5335 24.7552 38.4366 24.6266 38.3157 24.523C38.1948 24.4194 38.0529 24.3433 37.8998 24.2999C37.7287 24.2578 37.5503 24.2538 37.3775 24.2884C37.2047 24.323 37.0416 24.3952 36.8998 24.4999L29.0998 29.4999C28.4496 29.8874 27.7067 30.0919 26.9498 30.0919C26.1929 30.0919 25.45 29.8874 24.7998 29.4999L24.2998 29.1999L32.8998 20.8999C33.511 20.2857 34.3337 19.928 35.1998 19.8999H43.7998C44.2498 19.9044 44.6934 20.0067 45.0998 20.1999L52.5998 23.2999V38.9999H47.0998Z" fill="white"/>
<g style="mix-blend-mode:darken">
<path d="M5 18H15V42H5V18ZM53 18H63V42H53V18Z" fill="#8AD0FF"/>
</g>
<path d="M46.8 42.7998L37.3 26.8998L30.6 31.1998C29.5996 31.8878 28.4141 32.2561 27.2 32.2561C25.9859 32.2561 24.8004 31.8878 23.8 31.1998L23.1 30.7998L22.7 30.4998C22.5068 30.2977 22.3559 30.0591 22.2562 29.7979C22.1565 29.5367 22.1099 29.2582 22.1192 28.9788C22.1285 28.6994 22.1935 28.4246 22.3104 28.1706C22.4273 27.9167 22.5938 27.6886 22.8 27.4998L27.6 22.7998H15.5V24.7998H24.6L28 24.9998C27.2 25.7998 26.3 24.4998 23 28.9998C23.9944 29.6645 25.0298 30.2657 26.1 30.7998V30.9998C28.2 32.2998 29.5 30.7998 30.1 30.9998L35.1 26.9998L44.9 44.7998C45 44.8998 45 44.8998 45 44.9998L45.6 45.3998H45.7C46.7 45.6998 46.7 45.1998 47 44.1998C47.0691 43.9658 47.087 43.7196 47.0525 43.478C47.018 43.2364 46.9319 43.0051 46.8 42.7998Z" fill="#DEE0E2"/>
<path d="M62.8 17.3999H53.3C52.9817 17.3999 52.6765 17.5263 52.4515 17.7514C52.2264 17.9764 52.1 18.2816 52.1 18.5999V20.9999L45.7 18.3999C45.038 18.1136 44.3209 17.9771 43.6 17.9999H35.4C34.6829 17.9783 33.9687 18.0998 33.299 18.3574C32.6294 18.6149 32.0178 19.0033 31.5 19.4999L30.1 20.8999H15.9V18.5999C15.9 18.2816 15.7736 17.9764 15.5485 17.7514C15.3235 17.5263 15.0183 17.3999 14.7 17.3999H5.2C5.04241 17.3999 4.88637 17.4309 4.74078 17.4912C4.59519 17.5516 4.4629 17.6399 4.35147 17.7514C4.24004 17.8628 4.15165 17.9951 4.09134 18.1407C4.03104 18.2863 4 18.4423 4 18.5999V41.8999C4 42.2182 4.12643 42.5234 4.35147 42.7484C4.57652 42.9735 4.88174 43.0999 5.2 43.0999H14.7C15.0183 43.0999 15.3235 42.9735 15.5485 42.7484C15.7736 42.5234 15.9 42.2182 15.9 41.8999V40.9999H20L25.6 50.3999C25.9838 51.0465 26.5235 51.5867 27.1699 51.971C27.8162 52.3553 28.5486 52.5715 29.3 52.5999C29.9435 52.5883 30.5758 52.429 31.148 52.1343C31.7202 51.8395 32.217 51.4172 32.6 50.8999L33.5 51.2999L34.9 51.4999C35.6043 51.4868 36.294 51.2967 36.9056 50.9473C37.5172 50.5978 38.0311 50.1 38.4 49.4999H38.6L39.9 49.6999C40.6231 49.7137 41.3371 49.5359 41.9693 49.1847C42.6016 48.8334 43.1297 48.3212 43.5 47.6999H43.6V47.3999L44.7 47.5999C45.2469 47.6001 45.7884 47.4908 46.2924 47.2785C46.7965 47.0663 47.253 46.7553 47.6351 46.3639C48.0171 45.9725 48.317 45.5087 48.5171 44.9996C48.7171 44.4906 48.8133 43.9467 48.8 43.3999C48.8125 42.7766 48.6753 42.1593 48.4 41.5999L48.1 41.0999H52V41.9999C52 42.3182 52.1264 42.6234 52.3515 42.8484C52.5765 43.0735 52.8817 43.1999 53.2 43.1999H62.7C62.8746 43.2152 63.0503 43.192 63.215 43.1321C63.3797 43.0722 63.5292 42.9769 63.6531 42.853C63.777 42.7291 63.8723 42.5796 63.9322 42.4149C63.9921 42.2502 64.0153 42.0745 64 41.8999V18.5999C64 18.4423 63.969 18.2863 63.9087 18.1407C63.8484 17.9951 63.76 17.8628 63.6485 17.7514C63.5371 17.6399 63.4048 17.5516 63.2592 17.4912C63.1136 17.4309 62.9576 17.3999 62.8 17.3999ZM13.7 40.9999H6V19.3999H13.7V40.9999ZM46.9 44.1999C46.8318 44.4323 46.7175 44.6486 46.5638 44.8358C46.41 45.023 46.2201 45.1773 46.0053 45.2893C45.7906 45.4013 45.5554 45.4689 45.3139 45.4879C45.0725 45.5069 44.8296 45.477 44.6 45.3999H44.5C44.0504 45.2077 43.6922 44.8495 43.5 44.3999H43.4L39.6 38.1999C39.4349 37.9414 39.1772 37.7559 38.8796 37.6815C38.582 37.6071 38.2673 37.6495 38 37.7999C37.7505 37.996 37.5751 38.271 37.5024 38.5799C37.4298 38.8888 37.4642 39.2131 37.6 39.4999L41.4 45.5999L42 46.4999L41.8 46.8999C41.6099 47.2085 41.3311 47.4524 41 47.5999C40.7961 47.7383 40.5593 47.8205 40.3134 47.838C40.0676 47.8556 39.8215 47.8079 39.6 47.6999C39.1629 47.5404 38.8045 47.2179 38.6 46.7999H38.5L34.7 40.4999C34.6459 40.3265 34.5531 40.1676 34.4287 40.0353C34.3042 39.903 34.1514 39.8006 33.9816 39.736C33.8119 39.6713 33.6297 39.646 33.4487 39.662C33.2678 39.678 33.0928 39.7349 32.9371 39.8284C32.7813 39.9218 32.6488 40.0494 32.5495 40.2016C32.4503 40.3537 32.3868 40.5263 32.364 40.7066C32.3412 40.8868 32.3595 41.0698 32.4177 41.2419C32.476 41.4139 32.5725 41.5706 32.7 41.6999L36.4 47.9999L36.7 48.4999V48.8999C36.4824 49.1839 36.2104 49.4219 35.9 49.5999C35.4483 49.8064 34.9338 49.8278 34.4665 49.6596C33.9993 49.4914 33.6164 49.1469 33.4 48.6999L29.8 42.6999C29.6295 42.4705 29.3827 42.3094 29.1041 42.2458C28.8254 42.1821 28.5332 42.22 28.28 42.3526C28.0268 42.4853 27.8293 42.7039 27.7229 42.9692C27.6166 43.2346 27.6085 43.5291 27.7 43.7999L31.2 49.5999L31 49.9999C30.8775 50.2194 30.7103 50.4108 30.5093 50.5618C30.3084 50.7127 30.078 50.8199 29.833 50.8764C29.5881 50.933 29.3341 50.9376 29.0872 50.8899C28.8404 50.8423 28.6063 50.7435 28.4 50.5999C28.0914 50.4098 27.8475 50.131 27.7 49.7999H27.6L21.4 39.2999C21.282 39.1153 21.1194 38.9635 20.9271 38.8586C20.7347 38.7537 20.5191 38.6991 20.3 38.6999H15.5V22.7999H27.6L22.8 27.4999C22.5938 27.6887 22.4273 27.9168 22.3104 28.1707C22.1935 28.4247 22.1285 28.6994 22.1192 28.9789C22.1099 29.2583 22.1565 29.5368 22.2562 29.798C22.3559 30.0592 22.5068 30.2978 22.7 30.4999L23.1 30.7999L23.8 31.1999C24.8004 31.8879 25.9859 32.2562 27.2 32.2562C28.4141 32.2562 29.5996 31.8879 30.6 31.1999L37.3 26.8999L46.8 42.7999C46.9154 43.0127 46.984 43.2477 47.0012 43.4891C47.0185 43.7305 46.984 43.9729 46.9 44.1999ZM47.1 38.9999L38.6 24.8999C38.5337 24.7552 38.4367 24.6266 38.3159 24.523C38.195 24.4194 38.0531 24.3433 37.9 24.2999C37.7289 24.2578 37.5505 24.2538 37.3777 24.2884C37.2049 24.323 37.0418 24.3952 36.9 24.4999L29.1 29.4999C28.4498 29.8874 27.7069 30.0919 26.95 30.0919C26.1931 30.0919 25.4502 29.8874 24.8 29.4999L24.3 29.1999L32.9 20.8999C33.5112 20.2857 34.3339 19.928 35.2 19.8999H43.8C44.25 19.9044 44.6936 20.0067 45.1 20.1999L52.6 23.2999V38.9999H47.1ZM62 40.9999H54.3V19.3999H62V40.9999Z" fill="#4D535B"/>
</g>
<defs>
<filter id="filter0_d_72_61" x="-2" y="0" width="72" height="72" filterUnits="userSpaceOnUse" color-interpolation-filters="sRGB">
<feFlood flood-opacity="0" result="BackgroundImageFix"/>
<feColorMatrix in="SourceAlpha" type="matrix" values="0 0 0 0 0 0 0 0 0 0 0 0 0 0 0 0 0 0 127 0" result="hardAlpha"/>
<feOffset dy="4"/>
<feGaussianBlur stdDeviation="2"/>
<feComposite in2="hardAlpha" operator="out"/>
<feColorMatrix type="matrix" values="0 0 0 0 0 0 0 0 0 0 0 0 0 0 0 0 0 0 0.25 0"/>
<feBlend mode="normal" in2="BackgroundImageFix" result="effect1_dropShadow_72_61"/>
<feBlend mode="normal" in="SourceGraphic" in2="effect1_dropShadow_72_61" result="shape"/>
</filter>
</defs>
</svg>
