<svg width="69" height="64" viewBox="0 0 69 64" fill="none" xmlns="http://www.w3.org/2000/svg">
<g filter="url(#filter0_d_72_108)">
<path d="M60.7031 18.7229H46.7031L39.7031 9.7229H22.7031L15.7031 18.7229H8.70312C7.00312 18.7229 5.70312 20.0229 5.70312 21.7229V48.7229C5.70312 50.4229 7.00312 51.7229 8.70312 51.7229H60.7031C62.4031 51.7229 63.7031 50.4229 63.7031 48.7229V21.7229C63.7031 20.0229 62.4031 18.7229 60.7031 18.7229Z" fill="white" stroke="#404145" stroke-width="2" stroke-miterlimit="10"/>
<path d="M52.7031 15.7229V13.7229H59.7031V15.7229" stroke="#404145" stroke-width="2" stroke-miterlimit="10"/>
<path d="M31.7031 46.7229C39.4351 46.7229 45.7031 40.4549 45.7031 32.7229C45.7031 24.9909 39.4351 18.7229 31.7031 18.7229C23.9711 18.7229 17.7031 24.9909 17.7031 32.7229C17.7031 40.4549 23.9711 46.7229 31.7031 46.7229Z" fill="#AEDFFF" stroke="#404145" stroke-width="2" stroke-miterlimit="10"/>
<path d="M31.7031 42.7229C37.2261 42.7229 41.7031 38.2459 41.7031 32.7229C41.7031 27.1999 37.2261 22.7229 31.7031 22.7229C26.1801 22.7229 21.7031 27.1999 21.7031 32.7229C21.7031 38.2459 26.1801 42.7229 31.7031 42.7229Z" fill="white" stroke="#404145" stroke-width="2" stroke-miterlimit="10"/>
<path d="M26.1031 30.7229C26.9031 28.4229 29.1031 26.7229 31.8031 26.7229M26.5031 35.7229C26.0031 34.8229 25.7031 33.8229 25.7031 32.7229M9.70312 23.7229H15.7031" stroke="#404145" stroke-width="2" stroke-miterlimit="10"/>
<path d="M60.7031 51.7229H51.7031V18.7229H60.7031C62.4031 18.7229 63.7031 20.0229 63.7031 21.7229V48.7229C63.7031 50.3229 62.4031 51.7229 60.7031 51.7229Z" fill="#AEDFFF" stroke="#404145" stroke-width="2" stroke-miterlimit="10"/>
<path d="M44.7031 44.7229H46.7031" stroke="#404145" stroke-width="2" stroke-miterlimit="10"/>
</g>
<defs>
<filter id="filter0_d_72_108" x="-2" y="0" width="72" height="72" filterUnits="userSpaceOnUse" color-interpolation-filters="sRGB">
<feFlood flood-opacity="0" result="BackgroundImageFix"/>
<feColorMatrix in="SourceAlpha" type="matrix" values="0 0 0 0 0 0 0 0 0 0 0 0 0 0 0 0 0 0 127 0" result="hardAlpha"/>
<feOffset dy="4"/>
<feGaussianBlur stdDeviation="2"/>
<feComposite in2="hardAlpha" operator="out"/>
<feColorMatrix type="matrix" values="0 0 0 0 0 0 0 0 0 0 0 0 0 0 0 0 0 0 0.25 0"/>
<feBlend mode="normal" in2="BackgroundImageFix" result="effect1_dropShadow_72_108"/>
<feBlend mode="normal" in="SourceGraphic" in2="effect1_dropShadow_72_108" result="shape"/>
</filter>
</defs>
</svg>
